<?xml version="1.0" encoding="utf-8"?>
<!-- Generator: Adobe Illustrator 18.0.0, SVG Export Plug-In . SVG Version: 6.00 Build 0)  -->
<!DOCTYPE svg PUBLIC "-//W3C//DTD SVG 1.1//EN" "http://www.w3.org/Graphics/SVG/1.1/DTD/svg11.dtd">
<svg version="1.1" xmlns="http://www.w3.org/2000/svg" xmlns:xlink="http://www.w3.org/1999/xlink" x="0px" y="0px"
	 viewBox="0 0 432 322.5" enable-background="new 0 0 432 322.5" xml:space="preserve">
<g id="Layer_1">
</g>
<g id="Layer_2">
	<path display="none" fill="#572870" d="M-91.3,113.2c-0.3,12.3-21.8,17.5-21.8,17.5l-123,30.3c0,0-12.9,16.3-36.9,16.7
		c-0.3,0-0.7,0-1,0c-24.7,0-37.1-16.8-37.1-16.8l-127-30c-16-4-17.5-16.2-17.5-16.2s0-180.1,0-195S-438-90.8-438-90.8l125,33.5
		c14.7,14.6,28.3,19.5,40.1,19.3c24-0.3,39.9-21.1,39.9-21.1s110.2-28,125-32.2s16.9,9,16.9,9v53.5c0,0-38.1,7.3-59.9,12
		s-15.3,22-11.8,28.5c-20.3,12-8,28.5-1.5,30.8c-9.3,17.8,5.5,25,12.8,25.5c-1.8,27.3,25.5,20.3,25.5,20.3l34.8-5.5
		C-91.3,82.7-91,100.9-91.3,113.2z"/>
	<g>
		<path d="M401.3,250.2c-0.3,12.2-21.8,17.5-21.8,17.5l-123,30.3c0,0-12.9,16.3-36.9,16.7v0c-24-0.5-36.9-16.7-36.9-16.7l-123-30.3
			c0,0-21.5-5.3-21.8-17.5c-0.3-12.3,0-30.5,0-30.5l34.8,5.5c0,0,27.3,7,25.5-20.3c7.3-0.5,22-7.8,12.8-25.5
			c6.5-2.3,18.8-18.8-1.5-30.8c3.5-6.5,10-23.8-11.8-28.5s-59.9-12-59.9-12V54.7c0,0,2.1-13.3,16.9-9c9.4,2.7,57.9,15.2,91.7,23.8
			v106.5l15.5-19l17.8,19V78c0,0,16,20.8,39.9,21.1v0c23.9-0.3,39.9-21.1,39.9-21.1s110.3-28,125-32.3s16.9,9,16.9,9v53.5
			c0,0-38.1,7.3-59.9,12s-15.3,22-11.8,28.5c-20.3,12-8,28.5-1.5,30.8c-9.3,17.8,5.5,25,12.8,25.5c-1.8,27.3,25.5,20.3,25.5,20.3
			l34.8-5.5C401.3,219.7,401.6,238,401.3,250.2z"/>
		<polygon points="171.9,76.4 171.9,155.2 162.4,145.2 153.4,155.2 153.4,72.2 		"/>
		<g>
			<path d="M29.6,133.1l66.8,13.2c5.1,1,10-2.3,11-7.4l0,0c1-5.1-2.3-10-7.4-11l-66.8-13.2c-5.1-1-10,2.3-11,7.4l0,0
				C21.2,127.1,24.5,132.1,29.6,133.1z"/>
			<path d="M23.5,157.9l77.6,15.4c5.1,1,10-2.3,11-7.4v0c1-5.1-2.3-10-7.4-11l-77.6-15.4c-5.1-1-10,2.3-11,7.4l0,0
				C15.1,152,18.4,156.9,23.5,157.9z"/>
			<path d="M24.8,184.1l71.6,14.2c5.1,1,10-2.3,11-7.4l0,0c1-5.1-2.3-10-7.4-11l-71.6-14.2c-5.1-1-10,2.3-11,7.4l0,0
				C16.4,178.1,19.7,183.1,24.8,184.1z"/>
			<path d="M23.6,207.5l57.1,11.3c5.1,1,10-2.3,11-7.4v0c1-5.1-2.3-10-7.4-11l-57.1-11.3c-5.1-1-10,2.3-11,7.4l0,0
				C15.3,201.5,18.6,206.5,23.6,207.5z"/>
		</g>
		<g>
			<path d="M411.2,132.9l-66.8,13.2c-5.1,1-10-2.3-11-7.4v0c-1-5.1,2.3-10,7.4-11l66.8-13.2c5.1-1,10,2.3,11,7.4v0
				C419.6,126.9,416.3,131.9,411.2,132.9z"/>
			<path d="M417.4,157.7l-77.6,15.4c-5.1,1-10-2.3-11-7.4l0,0c-1-5.1,2.3-10,7.4-11l77.6-15.4c5.1-1,10,2.3,11,7.4v0
				C425.7,151.8,422.4,156.7,417.4,157.7z"/>
			<path d="M416,183.9l-71.6,14.2c-5.1,1-10-2.3-11-7.4v0c-1-5.1,2.3-10,7.4-11l71.6-14.2c5.1-1,10,2.3,11,7.4v0
				C424.4,178,421.1,182.9,416,183.9z"/>
			<path d="M417.2,207.3l-57.1,11.3c-5.1,1-10-2.3-11-7.4v0c-1-5.1,2.3-10,7.4-11l57.1-11.3c5.1-1,10,2.3,11,7.4v0
				C425.6,201.4,422.2,206.3,417.2,207.3z"/>
		</g>
		<g>
			<path fill="none" d="M29.6,133.1l66.8,13.2c5.1,1,10-2.3,11-7.4l0,0c1-5.1-2.3-10-7.4-11l-66.8-13.2c-5.1-1-10,2.3-11,7.4l0,0
				C21.2,127.1,24.5,132.1,29.6,133.1z"/>
			<path fill="none" d="M23.5,157.9l77.6,15.4c5.1,1,10-2.3,11-7.4v0c1-5.1-2.3-10-7.4-11l-77.6-15.4c-5.1-1-10,2.3-11,7.4l0,0
				C15.1,152,18.4,156.9,23.5,157.9z"/>
			<path fill="none" d="M24.8,184.1l71.6,14.2c5.1,1,10-2.3,11-7.4l0,0c1-5.1-2.3-10-7.4-11l-71.6-14.2c-5.1-1-10,2.3-11,7.4l0,0
				C16.4,178.1,19.7,183.1,24.8,184.1z"/>
			<path fill="none" d="M23.6,207.5l57.1,11.3c5.1,1,10-2.3,11-7.4v0c1-5.1-2.3-10-7.4-11l-57.1-11.3c-5.1-1-10,2.3-11,7.4l0,0
				C15.3,201.5,18.6,206.5,23.6,207.5z"/>
		</g>
		<path d="M231.9,82.3c0,0,57.3-57,124.7-55.7l-2.3-8.3C354.2,18.3,276.9,13.3,231.9,82.3z"/>
		<path d="M258.2,72.2c0,0,108.2-30.9,117.8-31.6l-3.8-9C372.2,31.6,299.9,39.1,258.2,72.2z"/>
		<path d="M208.2,82.3c0,0-57.3-57-124.7-55.7l2.3-8.3C85.8,18.3,163.2,13.3,208.2,82.3z"/>
		<path d="M181.8,72.2c0,0-108.2-30.9-117.8-31.6l3.8-9C67.8,31.6,140.2,39.1,181.8,72.2z"/>
	</g>
</g>
</svg>
